<mxfile host="app.diagrams.net" modified="2020-12-29T15:09:24.795Z" agent="5.0 (Macintosh; Intel Mac OS X 10_15_1) AppleWebKit/537.36 (KHTML, like Gecko) Chrome/87.0.4280.88 Safari/537.36" etag="b97RhZtU4qcCjewSPG4r" version="14.1.3" type="github">
  <diagram id="qxTyvewcbjxnNr8Hr94W" name="下单-抢单活动图">
    <mxGraphModel dx="1026" dy="607" grid="1" gridSize="10" guides="1" tooltips="1" connect="1" arrows="1" fold="1" page="1" pageScale="1" pageWidth="2339" pageHeight="3300" math="0" shadow="0">
      <root>
        <mxCell id="ZANoCRO6pwCxuDd8znXz-0" />
        <mxCell id="ZANoCRO6pwCxuDd8znXz-1" parent="ZANoCRO6pwCxuDd8znXz-0" />
        <mxCell id="vbwdOs1oIL1K-1MVHl3S-0" value="Pool" style="swimlane;html=1;childLayout=stackLayout;resizeParent=1;resizeParentMax=0;startSize=20;" vertex="1" parent="ZANoCRO6pwCxuDd8znXz-1">
          <mxGeometry x="270" y="10" width="860" height="770" as="geometry">
            <mxRectangle x="270" y="10" width="60" height="20" as="alternateBounds" />
          </mxGeometry>
        </mxCell>
        <mxCell id="vbwdOs1oIL1K-1MVHl3S-1" value="用户" style="swimlane;html=1;startSize=20;" vertex="1" parent="vbwdOs1oIL1K-1MVHl3S-0">
          <mxGeometry y="20" width="560" height="750" as="geometry" />
        </mxCell>
        <mxCell id="vbwdOs1oIL1K-1MVHl3S-65" value="" style="ellipse;html=1;shape=startState;fillColor=#000000;strokeColor=#ff0000;" vertex="1" parent="vbwdOs1oIL1K-1MVHl3S-1">
          <mxGeometry x="77" y="20" width="30" height="30" as="geometry" />
        </mxCell>
        <mxCell id="vbwdOs1oIL1K-1MVHl3S-66" value="" style="html=1;verticalAlign=bottom;endArrow=open;endSize=8;strokeColor=#ff0000;" edge="1" source="vbwdOs1oIL1K-1MVHl3S-65" parent="vbwdOs1oIL1K-1MVHl3S-1">
          <mxGeometry relative="1" as="geometry">
            <mxPoint x="91" y="110" as="targetPoint" />
          </mxGeometry>
        </mxCell>
        <mxCell id="vbwdOs1oIL1K-1MVHl3S-73" style="rounded=0;orthogonalLoop=1;jettySize=auto;html=1;fillColor=#a20025;strokeColor=#FF5A1C;entryX=0.488;entryY=0.3;entryDx=0;entryDy=0;entryPerimeter=0;" edge="1" parent="vbwdOs1oIL1K-1MVHl3S-1" source="vbwdOs1oIL1K-1MVHl3S-67" target="vbwdOs1oIL1K-1MVHl3S-71">
          <mxGeometry relative="1" as="geometry">
            <mxPoint x="240" y="190" as="targetPoint" />
          </mxGeometry>
        </mxCell>
        <mxCell id="vbwdOs1oIL1K-1MVHl3S-67" value="下单" style="rounded=1;whiteSpace=wrap;html=1;arcSize=40;fontColor=#000000;fillColor=#ffffc0;strokeColor=#ff0000;" vertex="1" parent="vbwdOs1oIL1K-1MVHl3S-1">
          <mxGeometry x="40" y="110" width="100" height="30" as="geometry" />
        </mxCell>
        <mxCell id="vbwdOs1oIL1K-1MVHl3S-2" value="快递系统" style="swimlane;html=1;startSize=20;" vertex="1" parent="vbwdOs1oIL1K-1MVHl3S-1">
          <mxGeometry x="230" width="330" height="750" as="geometry" />
        </mxCell>
        <mxCell id="vbwdOs1oIL1K-1MVHl3S-97" style="edgeStyle=none;rounded=0;orthogonalLoop=1;jettySize=auto;html=1;strokeColor=#FF2B0A;" edge="1" parent="vbwdOs1oIL1K-1MVHl3S-2" source="vbwdOs1oIL1K-1MVHl3S-92" target="vbwdOs1oIL1K-1MVHl3S-95">
          <mxGeometry relative="1" as="geometry" />
        </mxCell>
        <mxCell id="vbwdOs1oIL1K-1MVHl3S-92" value="生成快递单" style="rounded=1;whiteSpace=wrap;html=1;arcSize=40;fontColor=#000000;fillColor=#ffffc0;strokeColor=#ff0000;" vertex="1" parent="vbwdOs1oIL1K-1MVHl3S-2">
          <mxGeometry x="190" y="280" width="100" height="30" as="geometry" />
        </mxCell>
        <mxCell id="vbwdOs1oIL1K-1MVHl3S-98" style="edgeStyle=none;rounded=0;orthogonalLoop=1;jettySize=auto;html=1;strokeColor=#FF2B0A;" edge="1" parent="vbwdOs1oIL1K-1MVHl3S-2" source="vbwdOs1oIL1K-1MVHl3S-94" target="vbwdOs1oIL1K-1MVHl3S-95">
          <mxGeometry relative="1" as="geometry" />
        </mxCell>
        <mxCell id="vbwdOs1oIL1K-1MVHl3S-94" value="收款" style="rounded=1;whiteSpace=wrap;html=1;arcSize=40;fontColor=#000000;fillColor=#ffffc0;strokeColor=#ff0000;" vertex="1" parent="vbwdOs1oIL1K-1MVHl3S-2">
          <mxGeometry x="40" y="280" width="100" height="30" as="geometry" />
        </mxCell>
        <mxCell id="vbwdOs1oIL1K-1MVHl3S-95" value="" style="shape=line;html=1;strokeWidth=6;strokeColor=#ff0000;direction=west;" vertex="1" parent="vbwdOs1oIL1K-1MVHl3S-2">
          <mxGeometry x="70" y="370" width="200" height="10" as="geometry" />
        </mxCell>
        <mxCell id="vbwdOs1oIL1K-1MVHl3S-71" value="" style="shape=line;html=1;strokeWidth=6;strokeColor=#ff0000;" vertex="1" parent="vbwdOs1oIL1K-1MVHl3S-2">
          <mxGeometry x="-90" y="170" width="200" height="10" as="geometry" />
        </mxCell>
        <mxCell id="vbwdOs1oIL1K-1MVHl3S-93" style="edgeStyle=none;rounded=0;orthogonalLoop=1;jettySize=auto;html=1;entryX=0.5;entryY=0;entryDx=0;entryDy=0;strokeColor=#FF2B0A;" edge="1" parent="vbwdOs1oIL1K-1MVHl3S-2" source="vbwdOs1oIL1K-1MVHl3S-71" target="vbwdOs1oIL1K-1MVHl3S-92">
          <mxGeometry relative="1" as="geometry" />
        </mxCell>
        <mxCell id="vbwdOs1oIL1K-1MVHl3S-99" value="锁定快递员范围" style="rounded=1;whiteSpace=wrap;html=1;arcSize=40;fontColor=#000000;fillColor=#ffffc0;strokeColor=#ff0000;" vertex="1" parent="vbwdOs1oIL1K-1MVHl3S-2">
          <mxGeometry x="120" y="410" width="100" height="30" as="geometry" />
        </mxCell>
        <mxCell id="vbwdOs1oIL1K-1MVHl3S-101" value="" style="edgeStyle=none;rounded=0;orthogonalLoop=1;jettySize=auto;html=1;strokeColor=#FF2B0A;entryX=0.5;entryY=0;entryDx=0;entryDy=0;" edge="1" parent="vbwdOs1oIL1K-1MVHl3S-2" source="vbwdOs1oIL1K-1MVHl3S-95" target="vbwdOs1oIL1K-1MVHl3S-99">
          <mxGeometry relative="1" as="geometry">
            <mxPoint x="170" y="460" as="targetPoint" />
          </mxGeometry>
        </mxCell>
        <mxCell id="vbwdOs1oIL1K-1MVHl3S-102" value="发送通知" style="rounded=1;whiteSpace=wrap;html=1;arcSize=40;fontColor=#000000;fillColor=#ffffc0;strokeColor=#ff0000;" vertex="1" parent="vbwdOs1oIL1K-1MVHl3S-2">
          <mxGeometry x="120" y="480" width="100" height="30" as="geometry" />
        </mxCell>
        <mxCell id="vbwdOs1oIL1K-1MVHl3S-103" value="" style="edgeStyle=none;rounded=0;orthogonalLoop=1;jettySize=auto;html=1;strokeColor=#FF2B0A;" edge="1" parent="vbwdOs1oIL1K-1MVHl3S-2" source="vbwdOs1oIL1K-1MVHl3S-99" target="vbwdOs1oIL1K-1MVHl3S-102">
          <mxGeometry relative="1" as="geometry" />
        </mxCell>
        <mxCell id="vbwdOs1oIL1K-1MVHl3S-72" value="" style="html=1;verticalAlign=bottom;endArrow=open;endSize=8;strokeColor=#ff0000;entryX=0.5;entryY=0;entryDx=0;entryDy=0;" edge="1" source="vbwdOs1oIL1K-1MVHl3S-71" parent="vbwdOs1oIL1K-1MVHl3S-1" target="vbwdOs1oIL1K-1MVHl3S-82">
          <mxGeometry relative="1" as="geometry">
            <mxPoint x="240" y="270" as="targetPoint" />
          </mxGeometry>
        </mxCell>
        <mxCell id="vbwdOs1oIL1K-1MVHl3S-82" value="支付" style="rounded=1;whiteSpace=wrap;html=1;arcSize=40;fontColor=#000000;fillColor=#ffffc0;strokeColor=#ff0000;" vertex="1" parent="vbwdOs1oIL1K-1MVHl3S-1">
          <mxGeometry x="50" y="220" width="100" height="30" as="geometry" />
        </mxCell>
        <mxCell id="vbwdOs1oIL1K-1MVHl3S-84" value="支付成功" style="rhombus;whiteSpace=wrap;html=1;fillColor=#ffffc0;strokeColor=#ff0000;" vertex="1" parent="vbwdOs1oIL1K-1MVHl3S-1">
          <mxGeometry x="60" y="280" width="80" height="40" as="geometry" />
        </mxCell>
        <mxCell id="vbwdOs1oIL1K-1MVHl3S-85" value="Yes" style="html=1;align=left;verticalAlign=bottom;endArrow=open;endSize=8;strokeColor=#ff0000;entryX=0;entryY=0.5;entryDx=0;entryDy=0;" edge="1" source="vbwdOs1oIL1K-1MVHl3S-84" parent="vbwdOs1oIL1K-1MVHl3S-1" target="vbwdOs1oIL1K-1MVHl3S-94">
          <mxGeometry x="-1" relative="1" as="geometry">
            <mxPoint x="230" y="340" as="targetPoint" />
          </mxGeometry>
        </mxCell>
        <mxCell id="vbwdOs1oIL1K-1MVHl3S-83" value="" style="ellipse;html=1;shape=endState;fillColor=#000000;strokeColor=#ff0000;" vertex="1" parent="vbwdOs1oIL1K-1MVHl3S-1">
          <mxGeometry x="87" y="420" width="30" height="30" as="geometry" />
        </mxCell>
        <mxCell id="vbwdOs1oIL1K-1MVHl3S-87" value="No" style="html=1;align=left;verticalAlign=top;endArrow=open;endSize=8;strokeColor=#ff0000;" edge="1" parent="vbwdOs1oIL1K-1MVHl3S-1" source="vbwdOs1oIL1K-1MVHl3S-84" target="vbwdOs1oIL1K-1MVHl3S-83">
          <mxGeometry x="-1" relative="1" as="geometry">
            <mxPoint x="360" y="450" as="targetPoint" />
            <mxPoint x="360" y="390" as="sourcePoint" />
          </mxGeometry>
        </mxCell>
        <mxCell id="vbwdOs1oIL1K-1MVHl3S-89" value="" style="edgeStyle=none;rounded=0;orthogonalLoop=1;jettySize=auto;html=1;entryX=0.5;entryY=0;entryDx=0;entryDy=0;" edge="1" parent="vbwdOs1oIL1K-1MVHl3S-1" source="vbwdOs1oIL1K-1MVHl3S-82" target="vbwdOs1oIL1K-1MVHl3S-84">
          <mxGeometry relative="1" as="geometry">
            <mxPoint x="100" y="360" as="targetPoint" />
          </mxGeometry>
        </mxCell>
        <mxCell id="vbwdOs1oIL1K-1MVHl3S-91" value="订单取消" style="text;html=1;strokeColor=none;fillColor=none;align=center;verticalAlign=middle;whiteSpace=wrap;rounded=0;" vertex="1" parent="vbwdOs1oIL1K-1MVHl3S-1">
          <mxGeometry x="82" y="460" width="58" height="20" as="geometry" />
        </mxCell>
        <mxCell id="vbwdOs1oIL1K-1MVHl3S-105" value="" style="edgeStyle=none;rounded=0;orthogonalLoop=1;jettySize=auto;html=1;strokeColor=#FF2B0A;" edge="1" parent="vbwdOs1oIL1K-1MVHl3S-0" source="vbwdOs1oIL1K-1MVHl3S-102" target="vbwdOs1oIL1K-1MVHl3S-104">
          <mxGeometry relative="1" as="geometry" />
        </mxCell>
        <mxCell id="vbwdOs1oIL1K-1MVHl3S-3" value="快递员" style="swimlane;html=1;startSize=20;" vertex="1" parent="vbwdOs1oIL1K-1MVHl3S-0">
          <mxGeometry x="560" y="20" width="300" height="750" as="geometry" />
        </mxCell>
        <mxCell id="vbwdOs1oIL1K-1MVHl3S-104" value="抢单" style="rounded=1;whiteSpace=wrap;html=1;arcSize=40;fontColor=#000000;fillColor=#ffffc0;strokeColor=#ff0000;" vertex="1" parent="vbwdOs1oIL1K-1MVHl3S-3">
          <mxGeometry x="50" y="480" width="100" height="30" as="geometry" />
        </mxCell>
        <mxCell id="vbwdOs1oIL1K-1MVHl3S-106" value="抢单成功？" style="rhombus;whiteSpace=wrap;html=1;fillColor=#ffffc0;strokeColor=#ff0000;" vertex="1" parent="vbwdOs1oIL1K-1MVHl3S-3">
          <mxGeometry x="60" y="550" width="80" height="40" as="geometry" />
        </mxCell>
        <mxCell id="vbwdOs1oIL1K-1MVHl3S-107" value="no" style="edgeStyle=orthogonalEdgeStyle;html=1;align=left;verticalAlign=bottom;endArrow=open;endSize=8;strokeColor=#ff0000;" edge="1" source="vbwdOs1oIL1K-1MVHl3S-106" parent="vbwdOs1oIL1K-1MVHl3S-3">
          <mxGeometry x="-1" relative="1" as="geometry">
            <mxPoint x="200" y="570" as="targetPoint" />
          </mxGeometry>
        </mxCell>
        <mxCell id="vbwdOs1oIL1K-1MVHl3S-111" value="" style="edgeStyle=none;rounded=0;orthogonalLoop=1;jettySize=auto;html=1;strokeColor=#FF2B0A;entryX=0.5;entryY=0;entryDx=0;entryDy=0;" edge="1" parent="vbwdOs1oIL1K-1MVHl3S-3" source="vbwdOs1oIL1K-1MVHl3S-104" target="vbwdOs1oIL1K-1MVHl3S-106">
          <mxGeometry relative="1" as="geometry">
            <mxPoint x="100" y="590" as="targetPoint" />
          </mxGeometry>
        </mxCell>
        <mxCell id="vbwdOs1oIL1K-1MVHl3S-112" value="" style="ellipse;html=1;shape=endState;fillColor=#000000;strokeColor=#ff0000;" vertex="1" parent="vbwdOs1oIL1K-1MVHl3S-3">
          <mxGeometry x="200" y="555" width="30" height="30" as="geometry" />
        </mxCell>
        <mxCell id="vbwdOs1oIL1K-1MVHl3S-113" value="查看详细地址" style="rounded=1;whiteSpace=wrap;html=1;arcSize=40;fontColor=#000000;fillColor=#ffffc0;strokeColor=#ff0000;" vertex="1" parent="vbwdOs1oIL1K-1MVHl3S-3">
          <mxGeometry x="50" y="630" width="100" height="30" as="geometry" />
        </mxCell>
        <mxCell id="vbwdOs1oIL1K-1MVHl3S-114" value="yes" style="edgeStyle=orthogonalEdgeStyle;html=1;align=left;verticalAlign=top;endArrow=open;endSize=8;strokeColor=#ff0000;" edge="1" parent="vbwdOs1oIL1K-1MVHl3S-3" source="vbwdOs1oIL1K-1MVHl3S-106" target="vbwdOs1oIL1K-1MVHl3S-113">
          <mxGeometry x="-1" relative="1" as="geometry">
            <mxPoint x="930" y="680" as="targetPoint" />
            <mxPoint x="930" y="619.9999999999998" as="sourcePoint" />
          </mxGeometry>
        </mxCell>
        <mxCell id="vbwdOs1oIL1K-1MVHl3S-115" value="收件" style="rounded=1;whiteSpace=wrap;html=1;arcSize=40;fontColor=#000000;fillColor=#ffffc0;strokeColor=#ff0000;" vertex="1" parent="vbwdOs1oIL1K-1MVHl3S-3">
          <mxGeometry x="50" y="690" width="100" height="30" as="geometry" />
        </mxCell>
        <mxCell id="vbwdOs1oIL1K-1MVHl3S-116" value="" style="edgeStyle=none;rounded=0;orthogonalLoop=1;jettySize=auto;html=1;strokeColor=#FF2B0A;" edge="1" parent="vbwdOs1oIL1K-1MVHl3S-3" source="vbwdOs1oIL1K-1MVHl3S-113" target="vbwdOs1oIL1K-1MVHl3S-115">
          <mxGeometry relative="1" as="geometry" />
        </mxCell>
      </root>
    </mxGraphModel>
  </diagram>
</mxfile>
